
<?xml version="1.0" standalone="no"?><!DOCTYPE svg PUBLIC "-//W3C//DTD SVG 1.1//EN" "http://www.w3.org/Graphics/SVG/1.1/DTD/svg11.dtd"><svg t="1550029670380" class="icon" style="" viewBox="0 0 1024 1024" version="1.1" xmlns="http://www.w3.org/2000/svg" p-id="3723" xmlns:xlink="http://www.w3.org/1999/xlink" width="14" height="14"><defs><style type="text/css"></style></defs><path d="M951.466667 921.6L714.666667 684.8C774.4 618.666667 810.666667 533.333333 810.666667 437.333333 810.666667 230.4 644.266667 64 437.333333 64S64 230.4 64 437.333333 230.4 810.666667 437.333333 810.666667c96 0 181.333333-36.266667 247.466667-96l236.8 236.8c4.266667 4.266667 10.666667 6.4 14.933333 6.4s10.666667-2.133333 14.933334-6.4c8.533333-6.4 8.533333-21.333333 0-29.866667zM106.666667 437.333333C106.666667 256 256 106.666667 437.333333 106.666667S768 256 768 437.333333 618.666667 768 437.333333 768 106.666667 618.666667 106.666667 437.333333z" p-id="3724"></path></svg>